<?xml version="1.0" encoding="UTF-8" standalone="no"?>
<svg
   width="16"
   height="16"
   viewBox="0 0 16 16"
   version="1.1"
   id="svg3"
   xml:space="preserve"
   xmlns="http://www.w3.org/2000/svg"
   xmlns:svg="http://www.w3.org/2000/svg"><defs
     id="defs3"><clipPath
       id="clip-green"><path
         d="M 4.1153503,4.953e-5 V 8.21807 c 0.0501,-0.056 0.10135,-0.11128 0.1554,-0.16443 0.75847,-0.7458305 1.80453,-1.1156005 3.10425,-1.1156005 h 0.625 V 8.70244 h -0.625 c -0.74401,0 -1.29981,0.20438 -1.70252,0.60608 -0.39027,0.4134 -0.59143,0.99599 -0.59143,1.77857 v 0.15625 c 0,0.96576 0.25233,1.71532 0.75684,2.24865 0.51892,0.51892 1.23958,0.77832 2.16211,0.77832 0.92252,0 1.63612,-0.2594 2.1406197,-0.77832 0.51892,-0.53333 0.77832,-1.28289 0.77832,-2.24865 V 3.7211195 L 9.7736803,3.7063195 10.86755,1.9005295 11.89196,1.953e-5 Z m 7.7766097,0 1.04493,1.85705997 1.11718,1.83349 -1.18921,0.024 V 11.24329 c 0,1.47027 -0.43956,2.63063 -1.31884,3.48108 C 10.68115,15.57482 9.4991003,16 8.0000003,16 H 14.75 C 15.4425,16 16,15.4425 16,14.75 V 1.2499995 C 16,0.5574995 15.4425,-4.7e-7 14.75,-4.7e-7 Z"
         id="path1" /></clipPath><clipPath
       id="clip-orange-1"><path
         d="m 3e-7,8.70244 v 6.04761 c 0,0.6925 0.5575,1.25 1.25,1.25 h 6.75 c -1.51352,0 -2.70277,-0.42518 -3.56763,-1.27563 -0.86487,-0.85045 -1.29724,-2.01081 -1.29724,-3.48108 v -0.15625 c 0,-0.78258 -0.20129,-1.36517 -0.59156,-1.77857 -0.4027,-0.4017 -0.95838,-0.60608 -1.70239,-0.60608 z"
         id="path2" /></clipPath><clipPath
       id="clip-orange-2"><path
         d="m 1.2500003,4.953e-5 c -0.6925,0 -1.25,0.55749997 -1.25,1.24999997 v 5.68799 h 0.84118 c 1.29972,0 2.34578,0.36977 3.10425,1.1156005 0.0566,0.0556 0.11039,0.11329 0.16272,0.172 0.002,-0.003 0.005,-0.005 0.007,-0.008 V -3.8047e-4 Z"
         id="path3" /></clipPath></defs><path
     clip-path="url(#clip-green)"
     style="fill:#00aa00;stroke:#00aa00;stroke-width:2;stroke-linecap:square;fill-opacity:1"
     d="M 4.1153503,4.953e-5 V 8.21807 c 0.0501,-0.056 0.10135,-0.11128 0.1554,-0.16443 0.75847,-0.7458305 1.80453,-1.1156005 3.10425,-1.1156005 h 0.625 V 8.70244 h -0.625 c -0.74401,0 -1.29981,0.20438 -1.70252,0.60608 -0.39027,0.4134 -0.59143,0.99599 -0.59143,1.77857 v 0.15625 c 0,0.96576 0.25233,1.71532 0.75684,2.24865 0.51892,0.51892 1.23958,0.77832 2.16211,0.77832 0.92252,0 1.63612,-0.2594 2.1406197,-0.77832 0.51892,-0.53333 0.77832,-1.28289 0.77832,-2.24865 V 3.7211195 L 9.7736803,3.7063195 10.86755,1.9005295 11.89196,1.953e-5 Z m 7.7766097,0 1.04493,1.85705997 1.11718,1.83349 -1.18921,0.024 V 11.24329 c 0,1.47027 -0.43956,2.63063 -1.31884,3.48108 C 10.68115,15.57482 9.4991003,16 8.0000003,16 H 14.75 C 15.4425,16 16,15.4425 16,14.75 V 1.2499995 C 16,0.5574995 15.4425,-4.7e-7 14.75,-4.7e-7 Z"
     id="path4" /><path
     clip-path="url(#clip-orange-1)"
     style="fill:#ff6600;stroke:#ff6600;stroke-width:2;stroke-linecap:square;fill-opacity:1;stroke-opacity:1"
     d="m 3e-7,8.70244 v 6.04761 c 0,0.6925 0.5575,1.25 1.25,1.25 h 6.75 c -1.51352,0 -2.70277,-0.42518 -3.56763,-1.27563 -0.86487,-0.85045 -1.29724,-2.01081 -1.29724,-3.48108 v -0.15625 c 0,-0.78258 -0.20129,-1.36517 -0.59156,-1.77857 -0.4027,-0.4017 -0.95838,-0.60608 -1.70239,-0.60608 z"
     id="path5" /><path
     clip-path="url(#clip-orange-2)"
     style="fill:#ff6600;stroke:#ff6600;stroke-width:2;stroke-linecap:square;fill-opacity:1;stroke-opacity:1"
     d="m 1.2500003,4.953e-5 c -0.6925,0 -1.25,0.55749997 -1.25,1.24999997 v 5.68799 h 0.84118 c 1.29972,0 2.34578,0.36977 3.10425,1.1156005 0.0566,0.0556 0.11039,0.11329 0.16272,0.172 0.002,-0.003 0.005,-0.005 0.007,-0.008 V -3.8047e-4 Z"
     id="path6" /></svg>
