<svg width="16" height="16" viewBox="0 0 16 16" xmlns="http://www.w3.org/2000/svg">
  <g fill="none" stroke="#6aab73" transform="translate(1.75,3.1893398)">
    <path d="m 2.5,8.25 3.5,3.5 7.5,-7.5" stroke-width="1.5" stroke-linecap="round"/>
  </g>
  <path fill="#6c707e" fill-rule="evenodd" d="M 7.9140625 1 C 7.7151525 1 7.5200892 1.0385817 7.3398438 1.1132812 C 7.2497069 1.1506169 7.1635748 1.1975786 7.0820312 1.2519531 C 7.0004983 1.3063383 6.9238431 1.3691256 6.8535156 1.4394531 L 3.4394531 4.8535156 C 3.3691281 4.9238431 3.3063378 5.0004983 3.2519531 5.0820312 C 3.1975791 5.1635748 3.1506175 5.2497069 3.1132812 5.3398438 C 3.0759309 5.4299665 3.048519 5.5230439 3.0292969 5.6191406 C 3.0291721 5.619761 3.0294209 5.6204732 3.0292969 5.6210938 C 3.0103213 5.7165935 3 5.8152566 3 5.9140625 L 3 10.5 A 1.562835 1.562835 0 0 1 3.1445312 10.333984 A 1.562835 1.562835 0 0 1 4 9.8964844 L 4 6 L 6.5 6 C 7.32843 6 8 5.32843 8 4.5 L 8 2 L 11 2 C 11.5523 2 12 2.44772 12 3 L 12 8.4785156 L 13 7.4785156 L 13 3 C 13 1.89543 12.1046 1 11 1 L 7.9140625 1 z M 7 2.7070312 L 7 4.5 C 7 4.77614 6.77614 5 6.5 5 L 4.7070312 5 L 7 2.7070312 z M 13 11.900391 L 12 12.900391 L 12 13 C 12 13.5523 11.5523 14 11 14 L 10.900391 14 L 9.9003906 15 L 11 15 C 12.1046 15 13 14.1046 13 13 L 13 11.900391 z M 3 12.378906 L 3 13 C 3 14.1046 3.89543 15 5 15 L 5.5996094 15 L 4.3984375 13.798828 C 4.3232795 13.742256 4.257744 13.676722 4.2011719 13.601562 L 3.1445312 12.544922 A 1.562835 1.562835 0 0 1 3 12.378906 z"/>
  <path fill="#ebecf0" fill-rule="evenodd" d="M 8,2 V 4.5 C 8,5.32843 7.32843,6 6.5,6 H 4 V 9.8964844 A 1.562835,1.562835 0 0 1 5.3554688,10.333984 L 7.75,12.728516 12,8.4785156 V 3 C 12,2.44772 11.5523,2 11,2 Z M 7,2.7070312 4.7070312,5 H 6.5 C 6.77614,5 7,4.77614 7,4.5 Z M 12,12.900391 10.900391,14 H 11 c 0.5523,0 1,-0.4477 1,-1 z m -7.7988281,0.701171 c 0.056573,0.07516 0.1221066,0.140694 0.1972656,0.197266 z"/>
</svg>