<svg width="16" height="16" viewBox="0 0 16 16" xmlns="http://www.w3.org/2000/svg">
  <path fill="#d9a343" d="m 3.7458864,15.0689 a 0.93110002,0.93110002 0 0 1 -0.9311,0.9311 0.93110002,0.93110002 0 0 1 -0.9311,-0.9311 0.93110002,0.93110002 0 0 1 0.9311,-0.9311 0.93110002,0.93110002 0 0 1 0.9311,0.9311 z m -1.437059,-2.767229 c 0.100149,-0.227598 0.223054,-0.42334 0.368716,-0.587214 0.145673,-0.163873 0.341403,-0.359615 0.587213,-0.587213 0.236711,-0.213942 0.423341,-0.3983 0.559902,-0.553074 0.141117,-0.154774 0.259466,-0.334575 0.355059,-0.539417 0.09559,-0.2093985 0.14339,-0.4415528 0.14339,-0.6964632 0,-0.2867788 -0.06145,-0.5416891 -0.184358,-0.7647434 C 4.0204004,8.350492 3.8519704,8.1775185 3.6334724,8.0546133 3.4149744,7.9317081 3.1646204,7.8702555 2.8823854,7.8702555 c -0.314091,0 -0.591758,0.068281 -0.833025,0.204842 -0.241254,0.1365613 -0.427883,0.3277472 -0.559901,0.5735576 -0.03236,0.060273 -0.06076,0.122719 -0.08519,0.1873746 -0.13131,0.3474617 -0.413943,0.6593057 -0.78539,0.6593057 v 0 c -0.371446,0 -0.682347,-0.3044449 -0.607735,-0.6683188 0.05986,-0.2918688 0.161155,-0.5607208 0.303887,-0.8065437 0.24581,-0.4233401 0.591769,-0.7510873 1.037866,-0.9832416 0.446108,-0.2321543 0.960485,-0.3482314 1.543143,-0.3482314 0.555358,0 1.044694,0.1069772 1.468034,0.3209191 0.42334,0.213942 0.751088,0.5166612 0.983304,0.9081329 0.232154,0.386928 0.345872,0.8330242 0.341403,1.3383011 0,0.3914717 -0.06145,0.7374313 -0.184358,1.037866 -0.122905,0.295879 -0.273184,0.543974 -0.450714,0.74426 -0.17753,0.200285 -0.4074,0.425612 -0.689635,0.675978 -0.209386,0.18663 -0.373259,0.343676 -0.491621,0.471137 -0.118349,0.127461 -0.218498,0.270851 -0.300435,0.430168 -0.02232,0.04464 -0.04037,0.08983 -0.05495,0.135469 -0.109063,0.341242 -0.351546,0.642931 -0.709796,0.642931 v 0 c -0.35825,0 -0.670566,-0.292676 -0.621416,-0.647537 0.02093,-0.151173 0.05786,-0.29995 0.122967,-0.444954 z"/>
  <path fill="#ced0d6" d="M 6.828125,1 C 6.297685,1 5.7891425,1.2108575 5.4140625,1.5859375 l -2.828125,2.828125 C 2.2245044,4.7754956 2.016679,5.2620217 2.0019531,5.7714844 2.2917854,5.7165915 2.5915155,5.6894531 2.8964844,5.6894531 3.4821283,5.6894531 4.0457418,5.7874043 4.5605469,6 H 5.5 C 6.32843,6 7,5.32843 7,4.5 V 2 h 2 c 0.5523,0 1,0.44772 1,1 v 8 c 0,0.5523 -0.4477,1 -1,1 H 5.5195312 c -0.147969,0.148978 -0.3098266,0.302853 -0.4902343,0.462891 v -0.002 C 4.8344579,12.6346 4.6893588,12.776848 4.6054688,12.867188 4.5681762,12.907484 4.5344631,12.950639 4.5039062,13 H 9 c 1.1046,0 2,-0.8954 2,-2 V 3 C 11,1.89543 10.1046,1 9,1 Z M 6,2.4140625 V 4.5 C 6,4.77614 5.77614,5 5.5,5 H 3.4140625 Z M 12.5,3 C 12.2239,3 12,3.22386 12,3.5 V 13 c 0,0.5523 -0.4477,1 -1,1 H 4.5 C 4.46419,14 4.430162,14.0046 4.3964844,14.01172 4.6006608,14.295823 4.7298771,14.629477 4.7441406,15 H 11 c 1.1046,0 2,-0.8954 2,-2 V 3.5 C 13,3.22386 12.7761,3 12.5,3 Z M 2.8828125,8.8710938 c -0.169162,0 -0.2604537,0.029283 -0.3398437,0.074219 -0.085455,0.048371 -0.123465,0.085646 -0.171875,0.1757813 -0.01154,0.021492 -0.02215,0.044259 -0.03125,0.068359 C 2.2639338,9.3903192 2.1500874,9.6022862 2,9.7949219 v 1.1777341 c 0.1639011,-0.178255 0.3578594,-0.366945 0.5859375,-0.578125 l 0.00391,-0.0059 0.00586,-0.0039 C 2.7660389,10.230814 2.901409,10.098173 3,9.9941406 V 8.8789062 c -0.032942,-0.00473 -0.070121,-0.00781 -0.1171875,-0.00781 z"/>
  <path fill="#43454a" d="M 7,2 V 4.5 C 7,5.32843 6.32843,6 5.5,6 H 4.5605469 c 0.086263,0.035623 0.172558,0.07509 0.2558593,0.1171875 0.5751401,0.2906566 1.0612449,0.737309 1.3886719,1.2871094 C 6.5368311,7.9572247 6.692606,8.6027414 6.6875,9.2617188 6.686838,9.755589 6.6114016,10.234251 6.4316406,10.673828 l -0.00195,0.002 v 0.002 C 6.2719725,11.057414 6.0663564,11.403759 5.8027344,11.701172 5.7156546,11.799413 5.6204152,11.898428 5.5195312,12 H 9 c 0.5523,0 1,-0.4477 1,-1 V 3 C 10,2.44772 9.5523,2 9,2 Z M 6,2.4140625 3.4140625,5 H 5.5 C 5.77614,5 6,4.77614 6,4.5 Z M 3,8.8789062 v 1.1152344 c 0.027981,-0.029526 0.05448,-0.057437 0.076172,-0.082031 l 0.00391,-0.00586 0.00586,-0.00586 c 0.068547,-0.07518 0.13105,-0.1665375 0.1875,-0.2871094 0.0308,-0.068955 0.050781,-0.1482692 0.050781,-0.2753906 0,-0.1439277 -0.025067,-0.216852 -0.060547,-0.28125 l -0.00391,-0.00781 -0.00391,-0.00586 C 3.2213014,8.9778351 3.2049912,8.9597913 3.1445312,8.9257812 3.1063421,8.9043005 3.0629993,8.8879452 3,8.8789062 Z"/>
</svg>