<svg width="16" height="16" viewBox="0 0 16 16" xmlns="http://www.w3.org/2000/svg">
  <path fill="#57a64a" d="m 15.25,6.6893398 a 0.75,0.75 0 0 0 -0.53125,0.21875 L 7.75,13.87684 4.78125,10.90809 a 0.75,0.75 0 0 0 -1.0625,0 0.75,0.75 0 0 0 0,1.0625 L 7.75,15.999887 15.78125,7.9705898 a 0.75,0.75 0 0 0 0,-1.0625 0.75,0.75 0 0 0 -0.53125,-0.21875 z"/>
  <path fill="#ced0d6" fill-rule="evenodd" d="M 7.91421,1 C 7.51639,1 7.13486,1.15803 6.85355,1.43934 L 3.43934,4.85355 C 3.15804,5.13486 3,5.51639 3,5.91421 L 4,6 H 6.5 C 7.32843,6 8,5.32843 8,4.5 V 2 Z M 4.70711,5 7,2.70711 V 4.5 C 7,4.77614 6.77614,5 6.5,5 Z"/>
  <path fill="#ced0d6" fill-rule="evenodd" d="M 7.9140625,1 C 7.5162425,1 7.1348256,1.1581431 6.8535156,1.4394531 L 3.4394531,4.8535156 C 3.1581531,5.1348256 3,5.5162425 3,5.9140625 V 10.5 A 1.562835,1.562835 0 0 1 3.1445312,10.333984 1.562835,1.562835 0 0 1 4,9.8964844 V 6 L 4.7070312,5 7,2.7070312 8,2 h 3 c 0.5523,0 1,0.44772 1,1 v 5.4785156 l 1,-1 V 3 C 13,1.89543 12.1046,1 11,1 Z M 13,11.900391 l -1,1 V 13 c 0,0.5523 -0.4477,1 -1,1 H 10.90039 L 9.9003906,15 H 11 c 1.1046,0 2,-0.8954 2,-2 z M 3,12.378906 V 13 c 0,1.1046 0.89543,2 2,2 H 5.5996094 L 4.3984375,13.798828 C 4.3232795,13.742256 4.257744,13.676721 4.2011719,13.601562 L 3.1445312,12.544922 A 1.562835,1.562835 0 0 1 3,12.378906 Z"/>
  <path fill="#43454a" fill-rule="evenodd" d="M 8,2 V 4.5 C 8,5.32843 7.32843,6 6.5,6 H 4 V 9.8964844 A 1.562835,1.562835 0 0 1 5.3554688,10.333984 L 7.75,12.728516 12,8.4785156 V 3 C 12,2.44772 11.5523,2 11,2 Z M 7,2.7070312 4.7070312,5 H 6.5 C 6.77614,5 7,4.77614 7,4.5 Z M 12,12.900391 10.900391,14 H 11 c 0.5523,0 1,-0.4477 1,-1 z m -7.7988281,0.701171 c 0.056573,0.07516 0.1221066,0.140694 0.1972656,0.197266 z"/>
</svg>